<svg xmlns="http://www.w3.org/2000/svg" viewBox="0 0 1440 320" preserveAspectRatio="none">
  <defs>
    <linearGradient id="gradient" x1="0%" y1="0%" x2="100%" y2="0%">
      <stop offset="0%" style="stop-color:#4285f4;stop-opacity:0.15" />
      <stop offset="50%" style="stop-color:#34a853;stop-opacity:0.15" />
      <stop offset="100%" style="stop-color:#4285f4;stop-opacity:0.15" />
    </linearGradient>
  </defs>
  <path fill="url(#gradient)" d="M0,32L40,53.3C80,75,160,117,240,122.7C320,128,400,96,480,85.3C560,75,640,85,720,106.7C800,128,880,160,960,165.3C1040,171,1120,149,1200,128C1280,107,1360,85,1400,74.7L1440,64L1440,0L1400,0C1360,0,1280,0,1200,0C1120,0,1040,0,960,0C880,0,800,0,720,0C640,0,560,0,480,0C400,0,320,0,240,0C160,0,80,0,40,0L0,0Z">
  </path>
  <path fill="url(#gradient)" d="M0,64L40,80C80,96,160,128,240,133.3C320,139,400,117,480,101.3C560,85,640,75,720,90.7C800,107,880,149,960,154.7C1040,160,1120,128,1200,101.3C1280,75,1360,53,1400,42.7L1440,32L1440,0L1400,0C1360,0,1280,0,1200,0C1120,0,1040,0,960,0C880,0,800,0,720,0C640,0,560,0,480,0C400,0,320,0,240,0C160,0,80,0,40,0L0,0Z" opacity="0.5">
  </path>
</svg>